#!OML:ASF E:\motion texture\Top Level 1\Subject 1\Session 1\male.ASF
:FULLY-SPECIFIED
:DEGREES
293
root 13.3371 17.6489 5.49722 29.5333 -74.7167 -18.9187
lowerback 2.45862 5.00788 1.29943
upperback 2.30951 6.6565 0.626281
thorax 1.07203 3.32655 -0.17376
lowerneck -11.6165 -11.2604 -14.6456
upperneck 2.54084 -14.3021 17.0377
head 5.00792 -6.57594 6.34397
rclavicle -1.0871e-014 -2.38542e-015
rhumerus -1.50442 28.8381 -75.3888
rradius 75.823
rwrist -37.8975
rhand 11.31 -43.0283
rfingers 7.12502
rthumb 36.3678 -69.2536
lclavicle -1.0871e-014 -2.38542e-015
lhumerus -35.3058 -5.29699 88.3442
lradius 71.8821
lwrist 24.7722
lhand -3.9425 36.9512
lfingers 7.12502
lthumb 21.8092 65.7423
rfemur -23.2905 -11.1634 27.5167
rtibia 59.3792
rfoot 0.286076 -15.6895
rtoes 3.3828
lfemur -32.1149 -5.07051 -13.6837
ltibia 28.6375
lfoot -5.42473 -1.64367
ltoes -1.13344
294
root 13.1922 17.6706 5.51982 28.6705 -74.5275 -17.985
lowerback 2.5445 5.06641 1.31715
upperback 2.30032 6.73608 0.622856
thorax 1.01836 3.36628 -0.196661
lowerneck -11.4804 -11.4078 -14.7425
upperneck 2.36262 -14.4938 17.1242
head 4.97666 -6.67713 6.36683
rclavicle -3.23274e-014 8.05078e-015
rhumerus 0.180876 28.1628 -73.4283
rradius 75.405
rwrist -38.3282
rhand 11.8276 -43.0251
rfingers 7.12502
rthumb 36.8576 -69.1263
lclavicle -3.23274e-014 8.05078e-015
lhumerus -35.3934 -4.50076 87.5055
lradius 71.6477
lwrist 24.4092
lhand -4.14827 36.8114
lfingers 7.12502
lthumb 21.6116 65.6254
rfemur -24.1704 -11.4351 27.3278
rtibia 59.5384
rfoot -0.0280668 -15.9179
rtoes 3.68728
lfemur -31.4984 -5.21783 -13.9394
ltibia 28.3956
lfoot -5.71898 -1.73619
ltoes -1.06082
295
root 13.0485 17.692 5.54196 27.8319 -74.3414 -17.0732
lowerback 2.62796 5.11745 1.33773
upperback 2.28482 6.80592 0.619816
thorax 0.959763 3.40118 -0.220923
lowerneck -11.3524 -11.5459 -14.8273
upperneck 2.19701 -14.6736 17.195
head 4.94666 -6.77234 6.38406
rclavicle 2.48481e-016 2.68359e-015
rhumerus 1.95038 27.3516 -71.4648
rradius 74.8546
rwrist -38.7555
rhand 12.2649 -43.1021
rfingers 7.12502
rthumb 37.2713 -69.096
lclavicle 2.48481e-016 2.68359e-015
lhumerus -35.4646 -3.73142 86.6799
lradius 71.418
lwrist 24.0678
lhand -4.35661 36.6697
lfingers 7.12502
lthumb 21.4115 65.5065
rfemur -25.0437 -11.6951 27.1328
rtibia 59.6039
rfoot -0.391971 -16.1388
rtoes 3.94455
lfemur -30.8718 -5.3556 -14.1954
ltibia 28.1272
lfoot -6.00782 -1.81664
ltoes -1.01791
296
root 12.9059 17.7129 5.56363 27.0224 -74.1602 -16.1885
lowerback 2.70804 5.16295 1.36192
upperback 2.26298 6.86863 0.616367
thorax 0.896985 3.43253 -0.247675
lowerneck -11.2313 -11.6753 -14.8999
upperneck 2.04306 -14.8424 17.2519
head 4.91762 -6.86205 6.39611
rclavicle -1.72446e-014 -2.78299e-015
rhumerus 3.78919 26.4035 -69.5211
rradius 74.1589
rwrist -39.1573
rhand 12.6154 -43.257
rfingers 7.12502
rthumb 37.6025 -69.1633
lclavicle -1.72446e-014 -2.78299e-015
lhumerus -35.52 -2.99196 85.867
lradius 71.1878
lwrist 23.727
lhand -4.54007 36.5135
lfingers 7.12502
lthumb 21.2353 65.3703
rfemur -25.9068 -11.9412 26.9318
rtibia 59.5744
rfoot -0.800888 -16.3495
rtoes 4.15662
lfemur -30.2358 -5.48206 -14.4502
ltibia 27.8345
lfoot -6.29169 -1.88605
ltoes -0.999227
297
root 12.7643 17.7333 5.5848 26.236 -73.98 -15.3242
lowerback 2.78409 5.20108 1.38927
upperback 2.23524 6.92176 0.613132
thorax 0.830653 3.45911 -0.275876
lowerneck -11.1188 -11.7966 -14.9627
upperneck 1.90149 -15.0007 17.2965
head 4.89034 -6.94631 6.40379
rclavicle -3.06128e-014 3.57812e-015
rhumerus 5.68684 25.3256 -67.6166
rradius 73.3064
rwrist -39.513
rhand 12.8914 -43.4868
rfingers 7.12502
rthumb 37.8633 -69.3231
lclavicle -3.06128e-014 3.57812e-015
lhumerus -35.5603 -2.28602 85.0728
lradius 70.9597
lwrist 23.4032
lhand -4.7137 36.349
lfingers 7.12502
lthumb 21.0685 65.2244
rfemur -26.7574 -12.1785 26.7249
rtibia 59.4477
rfoot -1.24536 -16.5496
rtoes 4.3231
lfemur -29.5948 -5.59986 -14.704
ltibia 27.523
lfoot -6.56984 -1.94413
ltoes -1.00634
298
root 12.6234 17.7531 5.6054 25.4784 -73.7998 -14.4876
lowerback 2.85702 5.23212 1.42079
upperback 2.20102 6.96573 0.61075
thorax 0.759712 3.48113 -0.30553
lowerneck -11.0129 -11.9096 -15.0165
upperneck 1.77149 -15.1485 17.3305
head 4.86441 -7.02514 6.40786
rclavicle 2.61402e-014 2.04748e-014
rhumerus 7.62766 24.1243 -65.774
rradius 72.2896
rwrist -39.8004
rhand 13.097 -43.7889
rfingers 7.12502
rthumb 38.0575 -69.5725
lclavicle 2.61402e-014 2.04748e-014
lhumerus -35.5888 -1.61478 84.2976
lradius 70.731
lwrist 23.0808
lhand -4.86458 36.1699
lfingers 7.12502
lthumb 20.9235 65.0615
rfemur -27.5906 -12.4069 26.514
rtibia 59.222
rfoot -1.71736 -16.7399
rtoes 4.4446
lfemur -28.9494 -5.70792 -14.9537
ltibia 27.1961
lfoot -6.84291 -1.99048
ltoes -1.04213
299
root 12.4832 17.7722 5.62546 24.7515 -73.6177 -13.6805
lowerback 2.92758 5.25504 1.46041
upperback 2.15968 6.99931 0.607213
thorax 0.68376 3.49799 -0.34085
lowerneck -10.9149 -12.0143 -15.0603
upperneck 1.65478 -15.2861 17.3558
head 4.84068 -7.09858 6.40864
rclavicle -8.54774e-014 5.96354e-016
rhumerus 9.59877 22.8098 -64.0171
rradius 71.1043
rwrist -40.0032
rhand 13.2262 -44.1538
rfingers 7.12502
rthumb 38.1794 -69.9039
lclavicle -8.54774e-014 5.96354e-016
lhumerus -35.6047 -0.977141 83.5399
lradius 70.497
lwrist 22.7549
lhand -4.9962 35.9821
lfingers 7.12502
lthumb 20.7971 64.8875
rfemur -28.4031 -12.628 26.3005
rtibia 58.8949
rfoot -2.207 -16.9218
rtoes 4.53316
lfemur -28.3013 -5.80827 -15.1966
ltibia 26.8577
lfoot -7.11184 -2.02719
ltoes -1.09784
300
root 12.3434 17.7905 5.64485 24.0542 -73.4296 -12.901
lowerback 2.99338 5.27017 1.5071
upperback 2.11159 7.02288 0.603317
thorax 0.604312 3.50986 -0.380176
lowerneck -10.8217 -12.1117 -15.0942
upperneck 1.54766 -15.415 17.374
head 4.81787 -7.16753 6.4066
rclavicle -8.0806e-014 2.38542e-015
rhumerus 11.586 21.3886 -62.364
rradius 69.7501
rwrist -40.103
rhand 13.2773 -44.5694
rfingers 7.12502
rthumb 38.2277 -70.3063
lclavicle -8.0806e-014 2.38542e-015
lhumerus -35.6087 -0.380534 82.804
lradius 70.2588
lwrist 22.4269
lhand -5.11966 35.794
lfingers 7.12502
lthumb 20.6784 64.7124
rfemur -29.1943 -12.8461 26.0858
rtibia 58.4661
rfoot -2.70521 -17.0973
rtoes 4.58152
lfemur -27.6554 -5.90233 -15.4311
ltibia 26.5131
lfoot -7.37715 -2.06058
ltoes -1.17142
301
root 12.2039 17.8081 5.66363 23.3876 -73.2379 -12.1532
lowerback 3.05536 5.27874 1.56009
upperback 2.05785 7.03808 0.599282
thorax 0.521833 3.51754 -0.422893
lowerneck -10.7329 -12.2022 -15.1183
upperneck 1.45085 -15.5359 17.3848
head 4.79618 -7.23229 6.40161
rclavicle 1.0297e-013 3.97569e-016
rhumerus 13.5765 19.8736 -60.8302
rradius 68.2311
rwrist -40.0856
rhand 13.2418 -45.0219
rfingers 7.12502
rthumb 38.1942 -70.768
lclavicle 1.0297e-013 3.97569e-016
lhumerus -35.6017 0.175798 82.0908
lradius 70.0135
lwrist 22.0894
lhand -5.24646 35.6308
lfingers 7.12502
lthumb 20.5566 64.5624
rfemur -29.9568 -13.0586 25.869
rtibia 57.9338
rfoot -3.20333 -17.2623
rtoes 4.60499
lfemur -27.0076 -5.98913 -15.6563
ltibia 26.163
lfoot -7.63894 -2.09099
ltoes -1.26407
302
root 12.0646 17.8248 5.68178 22.7509 -73.0408 -11.4354
lowerback 3.11248 5.27958 1.6194
upperback 1.9985 7.04331 0.595202
thorax 0.436907 3.52022 -0.468749
lowerneck -10.6507 -12.2859 -15.1344
upperneck 1.36501 -15.6484 17.39
head 4.7764 -7.29256 6.39446
rclavicle 5.36719e-014 -2.3059e-014
rhumerus 15.5613 18.2812 -59.4293
rradius 66.5542
rwrist -39.9369
rhand 13.1146 -45.4937
rfingers 7.12502
rthumb 38.0741 -71.2728
lclavicle 5.36719e-014 -2.3059e-014
lhumerus -35.5842 0.69343 81.4011
lradius 69.7596
lwrist 21.7446
lhand -5.3596 35.46
lfingers 7.12502
lthumb 20.4479 64.4033
rfemur -30.6895 -13.2671 25.6502
rtibia 57.2978
rfoot -3.6943 -17.4153
rtoes 4.55182
lfemur -26.3616 -6.07175 -15.8713
ltibia 25.8116
lfoot -7.89712 -2.11919
ltoes -1.37516
303
root 11.9251 17.8407 5.69916 22.1391 -72.8367 -10.7433
lowerback 3.1657 5.27227 1.68221
upperback 1.93373 7.038 0.590951
thorax 0.348795 3.51754 -0.516394
lowerneck -10.5745 -12.363 -15.1428
upperneck 1.29015 -15.7531 17.3906
head 4.75864 -7.34856 6.38545
rclavicle 7.95139e-016 2.78299e-015
rhumerus 17.5298 16.6264 -58.1729
rradius 64.73
rwrist -39.6452
rhand 12.8888 -45.9684
rfingers 7.12502
rthumb 37.8608 -71.8054
lclavicle 7.95139e-016 2.78299e-015
lhumerus -35.5556 1.17492 80.7352
lradius 69.4934
lwrist 21.3971
lhand -5.45561 35.2757
lfingers 7.12502
lthumb 20.3556 64.2289
rfemur -31.3878 -13.4716 25.4284
rtibia 56.5566
rfoot -4.16906 -17.5573
rtoes 4.4746
lfemur -25.717 -6.14938 -16.0761
ltibia 25.461
lfoot -8.15109 -2.14922
ltoes -1.50269
304
root 11.7854 17.8556 5.71576 21.5477 -72.6264 -10.0724
lowerback 3.21233 5.25911 1.74453
upperback 1.86444 7.02503 0.586729
thorax 0.259477 3.51093 -0.563174
lowerneck -10.504 -12.4354 -15.1417
upperneck 1.22609 -15.8526 17.3845
head 4.7428 -7.40168 6.3733
rclavicle 3.8763e-014 -2.8625e-014
rhumerus 19.4722 14.9204 -57.0654
rradius 62.7715
rwrist -39.1974
rhand 12.5559 -46.4292
rfingers 7.12502
rthumb 37.5463 -72.3504
lclavicle 3.8763e-014 -2.8625e-014
lhumerus -35.516 1.6131 80.0966
lradius 69.2157
lwrist 21.0517
lhand -5.5353 35.0899
lfingers 7.12502
lthumb 20.279 64.0513
rfemur -32.0492 -13.6712 25.2013
rtibia 55.7115
rfoot -4.61686 -17.6841
rtoes 4.3546
lfemur -25.0753 -6.22248 -16.2719
ltibia 25.1146
lfoot -8.40066 -2.18156
ltoes -1.64194
305
root 11.6453 17.8695 5.73153 20.9733 -72.4089 -9.41938
lowerback 3.25251 5.239 1.80407
upperback 1.79103 7.00286 0.583109
thorax 0.168839 3.49959 -0.607201
lowerneck -10.4398 -12.5029 -15.1338
upperneck 1.17315 -15.9463 17.3732
head 4.72933 -7.45153 6.3589
rclavicle -5.17834e-014 3.97569e-015
rhumerus 21.3848 13.1816 -56.1107
rradius 60.694
rwrist -38.5809
rhand 12.1148 -46.8554
rfingers 7.12502
rthumb 37.1293 -72.8863
lclavicle -5.17834e-014 3.97569e-015
lhumerus -35.4657 2.01395 79.4864
lradius 68.9239
lwrist 20.7063
lhand -5.60201 34.8969
lfingers 7.12502
lthumb 20.2149 63.8651
rfemur -32.6713 -13.8659 24.9677
rtibia 54.7638
rfoot -5.02113 -17.797
rtoes 4.22473
lfemur -24.4366 -6.29157 -16.4592
ltibia 24.7737
lfoot -8.64516 -2.21783
ltoes -1.79194
306
root 11.5047 17.8825 5.74653 20.4136 -72.1844 -8.7819
lowerback 3.28547 5.2127 1.86162
upperback 1.71374 6.97248 0.57825
thorax 0.0778984 3.48404 -0.650676
lowerneck -10.3816 -12.566 -15.1182
upperneck 1.1307 -16.0352 17.3581
head 4.71823 -7.49859 6.34242
rclavicle -2.11706e-014 -1.03368e-014
rhumerus 23.2601 11.4215 -55.3125
rradius 58.5151
rwrist -37.7858
rhand 11.5733 -47.2325
rfingers 7.12502
rthumb 36.617 -73.395
lclavicle -2.11706e-014 -1.03368e-014
lhumerus -35.4037 2.3766 78.9032
lradius 68.6156
lwrist 20.3674
lhand -5.66211 34.7061
lfingers 7.12502
lthumb 20.1571 63.6803
rfemur -33.2528 -14.0553 24.726
rtibia 53.7178
rfoot -5.37622 -17.9016
rtoes 4.06777
lfemur -23.8017 -6.35735 -16.6388
ltibia 24.4404
lfoot -8.88453 -2.25813
ltoes -1.95427
307
root 11.3633 17.8944 5.76066 19.8678 -71.9525 -8.15998
lowerback 3.31076 5.17991 1.91427
upperback 1.63415 6.93331 0.573547
thorax -0.0120189 3.46399 -0.690442
lowerneck -10.333 -12.6255 -15.0972
upperneck 1.10004 -16.1196 17.339
head 4.71066 -7.54283 6.32392
rclavicle -8.28932e-014 7.15625e-015
rhumerus 25.0965 9.65328 -54.6699
rradius 56.2553
rwrist -36.8048
rhand 10.9344 -47.5417
rfingers 7.12502
rthumb 36.012 -73.8553
lclavicle -8.28932e-014 7.15625e-015
lhumerus -35.3304 2.7043 78.3486
lradius 68.2908
lwrist 20.0297
lhand -5.71951 34.5215
lfingers 7.12502
lthumb 20.102 63.5016
rfemur -33.7906 -14.2388 24.4765
rtibia 52.5773
rfoot -5.68213 -18.0013
rtoes 3.89606
lfemur -23.1698 -6.41871 -16.8096
ltibia 24.1157
lfoot -9.11833 -2.30536
ltoes -2.12573
